<svg width="26" height="27" viewBox="0 0 26 27" fill="none" xmlns="http://www.w3.org/2000/svg">
<path d="M20.5019 8.50588C20.5019 6.5152 19.6992 4.60605 18.2705 3.19842C16.8417 1.7908 14.9039 1 12.8833 1C10.8628 1 8.92499 1.7908 7.49624 3.19842C6.06749 4.60605 5.26483 6.5152 5.26483 8.50588C5.26483 17.2627 1.45557 19.7647 1.45557 19.7647H24.3111C24.3111 19.7647 20.5019 17.2627 20.5019 8.50588Z" stroke="#022D54" stroke-width="2" stroke-linecap="round" stroke-linejoin="round"/>
<path d="M15.5723 24.2941C15.3332 24.6877 14.99 25.0145 14.5771 25.2416C14.1641 25.4687 13.696 25.5882 13.2195 25.5882C12.743 25.5882 12.2748 25.4687 11.8619 25.2416C11.449 25.0145 11.1058 24.6877 10.8667 24.2941" stroke="#022D54" stroke-width="2" stroke-linecap="round" stroke-linejoin="round"/>
</svg>
